<?xml version="1.0" ?><!DOCTYPE svg  PUBLIC '-//W3C//DTD SVG 1.1//EN'  'http://www.w3.org/Graphics/SVG/1.1/DTD/svg11.dtd'><svg enable-background="new 0 0 75 75" height="75px" id="Layer_1" version="1.1" viewBox="0 0 75 75" width="75px" xml:space="preserve" xmlns="http://www.w3.org/2000/svg" xmlns:xlink="http://www.w3.org/1999/xlink"><g><g><g><g><g><g><path d="M56.279,69.49c-0.004,0-0.012,0-0.02,0H18.752c-0.232,0-0.451-0.107-0.593-0.291        c-0.143-0.183-0.191-0.422-0.134-0.646l3.188-12.355c0.086-0.331,0.385-0.562,0.727-0.562h31.139        c0.342,0,0.641,0.231,0.727,0.562l3.141,12.196c0.054,0.104,0.084,0.222,0.084,0.347C57.029,69.154,56.694,69.49,56.279,69.49        z M19.72,67.99h35.572l-2.795-10.855H22.521L19.72,67.99z" fill="#44A4E0"/></g><g><path d="M53.078,57.377c-0.12,0-0.24-0.028-0.35-0.087c-0.077-0.04-0.146-0.093-0.202-0.155H22.491        c-0.057,0.062-0.125,0.115-0.202,0.155c-0.244,0.131-0.543,0.114-0.773-0.044c-7.739-5.295-12.359-14.04-12.359-23.393        C9.156,18.225,21.871,5.51,37.5,5.51s28.344,12.715,28.344,28.344c0,9.352-4.613,18.097-12.342,23.393        C53.375,57.333,53.227,57.377,53.078,57.377z M37.5,7.01c-14.802,0-26.844,12.042-26.844,26.844        c0,8.645,4.169,16.741,11.184,21.788c0.033-0.005,0.066-0.007,0.1-0.007h31.139c0.033,0,0.066,0.002,0.099,0.007        c7.004-5.048,11.167-13.145,11.167-21.788C64.344,19.052,52.302,7.01,37.5,7.01z" fill="#44A4E0"/></g><g><path d="M20.68,25.783h-0.758c-0.268,0-0.515-0.142-0.648-0.374l-0.381-0.656c-0.136-0.233-0.136-0.52,0-0.753        l0.381-0.656c0.134-0.231,0.381-0.374,0.648-0.374h0.758c0.27,0,0.518,0.144,0.651,0.378l0.375,0.656        c0.132,0.23,0.132,0.514,0,0.744l-0.375,0.656C21.197,25.639,20.949,25.783,20.68,25.783z" fill="#44A4E0"/></g><g><path d="M60.898,34.98h-0.758c-0.268,0-0.516-0.143-0.649-0.375l-0.379-0.656c-0.134-0.232-0.134-0.518,0-0.75        l0.379-0.656c0.134-0.232,0.382-0.375,0.649-0.375h0.758c0.27,0,0.518,0.144,0.651,0.378l0.375,0.656        c0.132,0.23,0.132,0.514,0,0.744l-0.375,0.656C61.416,34.836,61.168,34.98,60.898,34.98z" fill="#44A4E0"/></g><g><path d="M16.156,35.176c-0.13,0-0.259-0.034-0.375-0.101l-0.656-0.379c-0.232-0.134-0.375-0.381-0.375-0.649        v-0.756c0-0.268,0.143-0.516,0.375-0.649l0.656-0.379c0.232-0.134,0.519-0.134,0.751,0l0.654,0.379        c0.231,0.134,0.374,0.381,0.374,0.649v0.756c0,0.268-0.143,0.515-0.374,0.649l-0.654,0.379        C16.416,35.142,16.286,35.176,16.156,35.176z" fill="#44A4E0"/></g><g><path d="M58.078,28.553c-0.129,0-0.258-0.033-0.374-0.1l-0.656-0.377c-0.232-0.134-0.376-0.382-0.376-0.65        v-0.758c0-0.268,0.143-0.516,0.375-0.649l0.656-0.379c0.232-0.134,0.518-0.134,0.75,0l0.656,0.379        c0.232,0.134,0.375,0.381,0.375,0.649v0.758c0,0.269-0.144,0.517-0.376,0.65l-0.656,0.377        C58.336,28.52,58.207,28.553,58.078,28.553z" fill="#44A4E0"/></g><path d="M25.281,15.281c-1.29,0-1.29,2,0,2S26.571,15.281,25.281,15.281z" fill="#44A4E0"/><path d="M43.562,10.781c-1.29,0-1.29,2,0,2S44.853,10.781,43.562,10.781z" fill="#44A4E0"/><path d="M53.25,19.406c-1.29,0-1.29,2,0,2S54.54,19.406,53.25,19.406z" fill="#44A4E0"/><path d="M34.719,10.75c-1.29,0-1.29,2,0,2S36.009,10.75,34.719,10.75z" fill="#44A4E0"/><path d="M21.062,17.469c-1.29,0-1.29,2,0,2S22.353,17.469,21.062,17.469z" fill="#44A4E0"/><path d="M52.156,22.688c-1.29,0-1.29,2,0,2S53.446,22.688,52.156,22.688z" fill="#44A4E0"/><path d="M45,16.25c-1.29,0-1.29,2,0,2S46.29,16.25,45,16.25z" fill="#44A4E0"/><path d="M49.844,13.938c-1.29,0-1.29,2,0,2S51.134,13.938,49.844,13.938z" fill="#44A4E0"/><path d="M31.438,14.75c-1.29,0-1.29,2,0,2S32.728,14.75,31.438,14.75z" fill="#44A4E0"/><g><path d="M38.924,15.646c-0.458,0-0.83-0.373-0.83-0.83c0-0.457,0.372-0.828,0.83-0.828s0.83,0.372,0.83,0.828        C39.754,15.274,39.382,15.646,38.924,15.646z M38.924,14.146c-0.369,0-0.67,0.3-0.67,0.67c0,0.371,0.301,0.672,0.67,0.672        s0.67-0.301,0.67-0.672C39.594,14.447,39.293,14.146,38.924,14.146z" fill="#44A4E0"/></g></g></g></g><g><g><g><g><path d="M26.684,66.957c-0.414,0-0.75-0.336-0.75-0.75c0-2.569-2.091-4.66-4.66-4.66        c-0.414,0-0.75-0.336-0.75-0.75s0.336-0.75,0.75-0.75c3.396,0,6.16,2.764,6.16,6.16        C27.434,66.621,27.098,66.957,26.684,66.957z" fill="#44A4E0"/></g><g><path d="M26.684,66.957c-0.414,0-0.75-0.336-0.75-0.75c0-3.396,2.763-6.16,6.158-6.16        c0.414,0,0.75,0.336,0.75,0.75s-0.336,0.75-0.75,0.75c-2.568,0-4.658,2.091-4.658,4.66        C27.434,66.621,27.098,66.957,26.684,66.957z" fill="#44A4E0"/></g></g><g><path d="M26.684,66.957c-0.721,0-1.307-0.586-1.307-1.307c0-0.72,0.586-1.305,1.307-1.305       c0.719,0,1.303,0.585,1.303,1.305C27.986,66.371,27.402,66.957,26.684,66.957z M26.684,65.457       c-0.106,0-0.197,0.089-0.197,0.193c0,0.214,0.391,0.217,0.391,0C26.877,65.546,26.788,65.457,26.684,65.457z" fill="#44A4E0"/></g></g><g><g><g><path d="M37.502,66.957c-0.414,0-0.75-0.336-0.75-0.75c0-2.569-2.091-4.66-4.66-4.66        c-0.414,0-0.75-0.336-0.75-0.75s0.336-0.75,0.75-0.75c3.396,0,6.16,2.764,6.16,6.16        C38.252,66.621,37.916,66.957,37.502,66.957z" fill="#44A4E0"/></g><g><path d="M37.502,66.957c-0.414,0-0.75-0.336-0.75-0.75c0-3.396,2.762-6.16,6.156-6.16        c0.414,0,0.75,0.336,0.75,0.75s-0.336,0.75-0.75,0.75c-2.567,0-4.656,2.091-4.656,4.66        C38.252,66.621,37.916,66.957,37.502,66.957z" fill="#44A4E0"/></g></g><g><path d="M37.502,66.957c-0.722,0-1.309-0.586-1.309-1.307c0-0.72,0.587-1.305,1.309-1.305       c0.72,0,1.305,0.585,1.305,1.305C38.807,66.371,38.222,66.957,37.502,66.957z M37.502,65.457c-0.107,0-0.195,0.087-0.195,0.193       c0,0.214,0.388,0.217,0.387,0C37.693,65.544,37.607,65.457,37.502,65.457z" fill="#44A4E0"/></g></g><g><g><g><path d="M48.318,66.957c-0.414,0-0.75-0.336-0.75-0.75c0-2.569-2.091-4.66-4.66-4.66        c-0.414,0-0.75-0.336-0.75-0.75s0.336-0.75,0.75-0.75c3.396,0,6.16,2.764,6.16,6.16        C49.068,66.621,48.732,66.957,48.318,66.957z" fill="#44A4E0"/></g><g><path d="M48.318,66.957c-0.414,0-0.75-0.336-0.75-0.75c0-3.396,2.764-6.16,6.16-6.16        c0.414,0,0.75,0.336,0.75,0.75s-0.336,0.75-0.75,0.75c-2.569,0-4.66,2.091-4.66,4.66        C49.068,66.621,48.732,66.957,48.318,66.957z" fill="#44A4E0"/></g></g><g><path d="M48.318,66.957c-0.72,0-1.305-0.586-1.305-1.307c0-0.72,0.585-1.305,1.305-1.305       s1.305,0.585,1.305,1.305C49.623,66.371,49.038,66.957,48.318,66.957z M48.318,65.457c-0.105,0-0.195,0.089-0.195,0.193       c0,0.211,0.391,0.211,0.391,0C48.514,65.546,48.424,65.457,48.318,65.457z" fill="#44A4E0"/></g></g></g></g><g><g><g><path d="M34.249,57.121H22.704c-0.414,0-0.75-0.336-0.75-0.75V40.617c0-0.414,0.336-0.75,0.75-0.75h8.178      c0.414,0,0.75,0.336,0.75,0.75v2.875h2.617c0.414,0,0.75,0.336,0.75,0.75v12.129C34.999,56.785,34.663,57.121,34.249,57.121z       M23.454,55.621h10.045V44.992h-2.617c-0.414,0-0.75-0.336-0.75-0.75v-2.875h-6.678V55.621z" fill="#44A4E0"/></g><g><path d="M30.882,57.121c-0.414,0-0.75-0.336-0.75-0.75V42.617c0-0.414,0.336-0.75,0.75-0.75      s0.75,0.336,0.75,0.75v13.754C31.632,56.785,31.296,57.121,30.882,57.121z" fill="#44A4E0"/></g><g><path d="M52.297,57.121h-4.645c-0.414,0-0.75-0.336-0.75-0.75v-8.785c0-0.414,0.336-0.75,0.75-0.75h4.645      c0.414,0,0.75,0.336,0.75,0.75v8.785C53.047,56.785,52.711,57.121,52.297,57.121z M48.402,55.621h3.145v-7.285h-3.145V55.621z" fill="#44A4E0"/></g></g><g><path d="M47.652,57.121H34.249c-0.414,0-0.75-0.336-0.75-0.75V27.047c0-0.414,0.336-0.75,0.75-0.75h13.403     c0.414,0,0.75,0.336,0.75,0.75v29.324C48.402,56.785,48.066,57.121,47.652,57.121z M34.999,55.621h11.903V27.797H34.999V55.621z" fill="#44A4E0"/></g><g><g><path d="M44.891,27.807h-7.879c-0.414,0-0.75-0.336-0.75-0.75v-5.785c0-0.414,0.336-0.75,0.75-0.75h7.879      c0.414,0,0.75,0.336,0.75,0.75v5.785C45.641,27.471,45.305,27.807,44.891,27.807z M37.762,26.307h6.379v-4.285h-6.379V26.307z" fill="#44A4E0"/></g><path d="M42.521,13.834H39.38c-0.053,0-0.099,0.02-0.148,0.03c-0.146-0.101-0.318-0.176-0.544-0.176     c-1.268,0-1.282,1.922-0.058,1.988v5.596c0,0.414,0.336,0.75,0.75,0.75h3.142c0.414,0,0.75-0.336,0.75-0.75v-6.688     C43.271,14.17,42.936,13.834,42.521,13.834z M41.771,20.521H40.13v-5.188h1.642V20.521z" fill="#44A4E0"/></g></g><g><g><g><path d="M39.836,34.285h-2.584c-0.414,0-0.75-0.336-0.75-0.75v-2.584c0-0.414,0.336-0.75,0.75-0.75h2.584      c0.414,0,0.75,0.336,0.75,0.75v2.584C40.586,33.949,40.25,34.285,39.836,34.285z M38.002,32.785h1.084v-1.084h-1.084V32.785z" fill="#44A4E0"/></g></g><g><g><path d="M44.648,34.285h-2.582c-0.414,0-0.75-0.336-0.75-0.75v-2.584c0-0.414,0.336-0.75,0.75-0.75h2.582      c0.414,0,0.75,0.336,0.75,0.75v2.584C45.398,33.949,45.062,34.285,44.648,34.285z M42.816,32.785h1.082v-1.084h-1.082V32.785z" fill="#44A4E0"/></g></g></g><g><g><g><path d="M39.836,39.035h-2.584c-0.414,0-0.75-0.336-0.75-0.75v-2.584c0-0.414,0.336-0.75,0.75-0.75h2.584      c0.414,0,0.75,0.336,0.75,0.75v2.584C40.586,38.699,40.25,39.035,39.836,39.035z M38.002,37.535h1.084v-1.084h-1.084V37.535z" fill="#44A4E0"/></g></g><g><g><path d="M44.648,39.035h-2.582c-0.414,0-0.75-0.336-0.75-0.75v-2.584c0-0.414,0.336-0.75,0.75-0.75h2.582      c0.414,0,0.75,0.336,0.75,0.75v2.584C45.398,38.699,45.062,39.035,44.648,39.035z M42.816,37.535h1.082v-1.084h-1.082V37.535z" fill="#44A4E0"/></g></g></g><g><g><g><path d="M39.836,43.785h-2.584c-0.414,0-0.75-0.336-0.75-0.75v-2.584c0-0.414,0.336-0.75,0.75-0.75h2.584      c0.414,0,0.75,0.336,0.75,0.75v2.584C40.586,43.449,40.25,43.785,39.836,43.785z M38.002,42.285h1.084v-1.084h-1.084V42.285z" fill="#44A4E0"/></g></g><g><g><path d="M44.648,43.785h-2.582c-0.414,0-0.75-0.336-0.75-0.75v-2.584c0-0.414,0.336-0.75,0.75-0.75h2.582      c0.414,0,0.75,0.336,0.75,0.75v2.584C45.398,43.449,45.062,43.785,44.648,43.785z M42.816,42.285h1.082v-1.084h-1.082V42.285z" fill="#44A4E0"/></g></g></g><g><g><g><path d="M39.836,48.535h-2.584c-0.414,0-0.75-0.336-0.75-0.75v-2.584c0-0.414,0.336-0.75,0.75-0.75h2.584      c0.414,0,0.75,0.336,0.75,0.75v2.584C40.586,48.199,40.25,48.535,39.836,48.535z M38.002,47.035h1.084v-1.084h-1.084V47.035z" fill="#44A4E0"/></g></g><g><g><path d="M44.648,48.535h-2.582c-0.414,0-0.75-0.336-0.75-0.75v-2.584c0-0.414,0.336-0.75,0.75-0.75h2.582      c0.414,0,0.75,0.336,0.75,0.75v2.584C45.398,48.199,45.062,48.535,44.648,48.535z M42.816,47.035h1.082v-1.084h-1.082V47.035z" fill="#44A4E0"/></g></g></g><g><g><g><path d="M39.836,53.285h-2.584c-0.414,0-0.75-0.336-0.75-0.75v-2.584c0-0.414,0.336-0.75,0.75-0.75h2.584      c0.414,0,0.75,0.336,0.75,0.75v2.584C40.586,52.949,40.25,53.285,39.836,53.285z M38.002,51.785h1.084v-1.084h-1.084V51.785z" fill="#44A4E0"/></g></g><g><g><path d="M44.648,53.285h-2.582c-0.414,0-0.75-0.336-0.75-0.75v-2.584c0-0.414,0.336-0.75,0.75-0.75h2.582      c0.414,0,0.75,0.336,0.75,0.75v2.584C45.398,52.949,45.062,53.285,44.648,53.285z M42.816,51.785h1.082v-1.084h-1.082V51.785z" fill="#44A4E0"/></g></g></g></g></svg>